# xmcd
#
# Track frame offsets:
#	150
#	15908
#	34572
#	55367
#	70295
#	83675
#	99358
#	114553
#	130835
#	143718
#	162712
#	176318
#	194695
#	210243
#	226708
#
# Disc length: 3188 seconds
#
# Revision: 0
# Processed by: cddbd v1.5.2PL0 Copyright (c) Steve Scherf et al.
# Submitted via: audiograbber 1.83.01
#
DISCID=bd0c720f
DTITLE=karaoke - CB 056
DYEAR=1900
DGENRE=karaoke
TTITLE0=David Allan Coe - The Ride
TTITLE1=Juice Newton - The Sweetest Thing   ( I've Ever Known )
TTITLE2=Willie Nelson - Angel Flying To Close To The Ground
TTITLE3=Conway Twitty - Slow Hand
TTITLE4=Charley McClain - Sleepin' With The Radio On
TTITLE5=Ricky Skaggs - Heartbroke
TTITLE6=Eddie Rabbitt - Someone Could Lose A Heart Tonight
TTITLE7=Jessi Colter - I'm Not Lisa
TTITLE8=George Jones - Still Doin' Time
TTITLE9=Hank Williams Jr. - Country State Of Mind
TTITLE10=Emmy Lou Harris - Lost In Love On Our First Date
TTITLE11=Waylon Jennings - I've Always Been Crazy
TTITLE12=Ronnie Milsap - Back On My Mind Again
TTITLE13=Janie Fricke - Tell Me A Lie
TTITLE14=Ronnie McDowell - Older Women
EXTD=
EXTT0=
EXTT1=
EXTT2=
EXTT3=
EXTT4=
EXTT5=
EXTT6=
EXTT7=
EXTT8=
EXTT9=
EXTT10=
EXTT11=
EXTT12=
EXTT13=
EXTT14=
PLAYORDER=
